<svg xmlns="http://www.w3.org/2000/svg" width="128" height="128" viewBox="0 0 128 128"><defs><filter id="s" x="-30%" y="-30%" width="160%" height="160%"><feDropShadow dx="0" dy="2" stdDeviation="2" flood-color="#000" flood-opacity="0.75"/></filter></defs><g filter="url(#s)"><path d="M64.00 18.00 L70.24 8.35 L81.68 10.86 L83.29 22.24 L93.57 28.76 L104.55 25.38 L111.70 34.66 L105.62 44.41 L109.30 56.01 L119.89 60.48 L119.40 72.18 L108.47 75.75 L103.84 87.00 L109.07 97.23 L101.18 105.88 L90.52 101.59 L79.73 107.23 L77.17 118.43 L65.56 119.98 L60.15 109.84 L48.27 107.23 L39.10 114.16 L29.22 107.89 L31.59 96.64 L24.16 87.00 L12.68 86.42 L9.14 75.26 L18.19 68.17 L18.70 56.01 L10.28 48.19 L14.74 37.37 L26.23 37.75 L34.43 28.76 L33.01 17.36 L43.39 11.93 L51.94 19.61 Z" fill="#151821" fill-opacity="0.92"/><path d="M64.00 18.00 L70.24 8.35 L81.68 10.86 L83.29 22.24 L93.57 28.76 L104.55 25.38 L111.70 34.66 L105.62 44.41 L109.30 56.01 L119.89 60.48 L119.40 72.18 L108.47 75.75 L103.84 87.00 L109.07 97.23 L101.18 105.88 L90.52 101.59 L79.73 107.23 L77.17 118.43 L65.56 119.98 L60.15 109.84 L48.27 107.23 L39.10 114.16 L29.22 107.89 L31.59 96.64 L24.16 87.00 L12.68 86.42 L9.14 75.26 L18.19 68.17 L18.70 56.01 L10.28 48.19 L14.74 37.37 L26.23 37.75 L34.43 28.76 L33.01 17.36 L43.39 11.93 L51.94 19.61 Z" fill="none" stroke="#b45309" stroke-width="5" stroke-linejoin="round"/><circle cx="64" cy="64" r="34" fill="none" stroke="#b45309" stroke-width="2" stroke-opacity="0.45"/><g color="#b45309"><g transform="translate(60 70) scale(0.125) translate(-256 -256)"><path fill="currentColor"  d="M175.125 11.375l7.656 122.78c-15.95 4.655-30.756 10.78-44.093 18.095L51.063 76.406l48.47 105.03c-17.535 17.983-28.61 39.145-31 61.94h112.75c4.627-37.73 36.893-67.095 75.843-67.095s71.216 29.366 75.844 67.095h112.717c-2.388-22.83-13.486-44-31.062-62l48.438-104.97-87.594 75.814c-13.638-7.474-28.798-13.72-45.158-18.407l7.625-122.438-61.406 113.094c-6.385-.446-12.846-.657-19.405-.657-6.945 0-13.81.252-20.563.75L175.125 11.374zm82 183.594c-32.012 0-57.75 25.742-57.75 57.75 0 32.006 25.738 57.75 57.75 57.75s57.75-25.744 57.75-57.75c0-32.008-25.738-57.75-57.75-57.75zM68.53 262.062c2.403 22.78 13.473 43.936 31 61.906L51.063 429.03l87.657-75.842c13.326 7.305 28.123 13.413 44.06 18.062l-7.655 122.813 61.47-113.25c6.74.496 13.595.78 20.53.78 6.548 0 12.998-.244 19.375-.687l61.438 113.156-7.625-122.468c16.354-4.685 31.523-10.906 45.156-18.375l87.592 75.81-48.468-105c17.576-17.99 28.69-39.15 31.094-61.967h-112.72c-4.627 37.73-36.893 67.093-75.843 67.093s-71.216-29.364-75.844-67.094H68.53z"/></g><g transform="translate(94 40) scale(0.06) translate(-256 -256)"><path fill="currentColor"  d="M246.488 29.5l-13.244 39.725 14.381 86.275h16.75l14.38-86.275L265.515 29.5h-19.026zM195 61.5l-40 30h63.709l-3.953-23.725 2.092-6.275H195zm100.152 0l2.092 6.275-3.953 23.725H357l-40-30h-21.848zM69.42 90.727L41.639 257.41 71 286.773V162.375l20.863-41.725L69.42 90.727zm373.16 0l-22.443 29.923L441 162.375v124.398l29.361-29.363-27.78-166.683zM117.563 109.5L89 166.625V400l110 82.5v-87.906l-80-32V211.576l35.393-72.076h72.316l-5-30H117.562zm172.728 0l-5 30h72.272L393 210.375v152.219l-80 32V482.5L423 400V166.625L394.437 109.5H290.291zm-124.684 48L137 215.758v3.742h238v-4.875L346.437 157.5h-64.146l-2.666 16h-47.25l-2.666-16h-64.102zM137 237.5v46h30v-46h-30zm96 0v46h46v-46h-46zm112 0v46h30v-46h-30zm-208 64v48.906l46.678 18.67 27.029-67.576H137zm93.092 0l-29.705 74.262L217 382.406v51.067l39 9.75 39-9.75v-51.067l16.613-6.644-29.705-74.262h-51.816zm71.201 0l27.03 67.576L375 350.406V301.5h-73.707z"/></g></g></g></svg>