<svg xmlns="http://www.w3.org/2000/svg" width="128" height="128" viewBox="0 0 128 128"><defs><filter id="s" x="-30%" y="-30%" width="160%" height="160%"><feDropShadow dx="0" dy="2" stdDeviation="2" flood-color="#000" flood-opacity="0.75"/></filter></defs><g filter="url(#s)"><path d="M64.00 18.00 L70.24 8.35 L81.68 10.86 L83.29 22.24 L93.57 28.76 L104.55 25.38 L111.70 34.66 L105.62 44.41 L109.30 56.01 L119.89 60.48 L119.40 72.18 L108.47 75.75 L103.84 87.00 L109.07 97.23 L101.18 105.88 L90.52 101.59 L79.73 107.23 L77.17 118.43 L65.56 119.98 L60.15 109.84 L48.27 107.23 L39.10 114.16 L29.22 107.89 L31.59 96.64 L24.16 87.00 L12.68 86.42 L9.14 75.26 L18.19 68.17 L18.70 56.01 L10.28 48.19 L14.74 37.37 L26.23 37.75 L34.43 28.76 L33.01 17.36 L43.39 11.93 L51.94 19.61 Z" fill="#151821" fill-opacity="0.92"/><path d="M64.00 18.00 L70.24 8.35 L81.68 10.86 L83.29 22.24 L93.57 28.76 L104.55 25.38 L111.70 34.66 L105.62 44.41 L109.30 56.01 L119.89 60.48 L119.40 72.18 L108.47 75.75 L103.84 87.00 L109.07 97.23 L101.18 105.88 L90.52 101.59 L79.73 107.23 L77.17 118.43 L65.56 119.98 L60.15 109.84 L48.27 107.23 L39.10 114.16 L29.22 107.89 L31.59 96.64 L24.16 87.00 L12.68 86.42 L9.14 75.26 L18.19 68.17 L18.70 56.01 L10.28 48.19 L14.74 37.37 L26.23 37.75 L34.43 28.76 L33.01 17.36 L43.39 11.93 L51.94 19.61 Z" fill="none" stroke="#22c55e" stroke-width="5" stroke-linejoin="round"/><circle cx="64" cy="64" r="34" fill="none" stroke="#22c55e" stroke-width="2" stroke-opacity="0.45"/><g color="#22c55e"><g transform="translate(60 70) scale(0.125) translate(-256 -256)"><path fill="currentColor"  d="M348.77 14.06l-5.854 17.163C332.126 22.93 318.623 18.01 304 18c-15.35.016-29.457 5.454-40.496 14.512l-15.602-13.567-11.81 13.584 15.228 13.238c-5.303 7.707-8.958 16.64-10.465 26.306h-23.263v18H240V192h-16.023c-24.42 0-31.977-5.767-31.977-31.857v-26.127h9.064v-18h-10.59c-1.455-5.342-3.874-9.798-6.947-13.358l-7.373 13.358h-3.334l-13.203-7.286 8.63-15.636c-9.775-2.624-20.645-.482-28.624 6.412l-13.264-11.53-11.81 13.583 15.31 13.31c-1.187 3.886-1.86 8.254-1.86 13.13v21.71h-19.46v18H128V192c0 31.09 6.727 48.742 24.484 57.33L141.5 267.068l15.303 9.477 13.62-21.99c6.328.98 13.464 1.445 21.522 1.445 21.323-.077 42.648.162 63.97 0l.17 18s-8.49.07-16.085.137v75.052h-25.68v18H240v60.587h-15.488v18H240v49.368h128v-12.057h13.7v-18H368v-26.48h23.572v-18H368V316.62h-25.99v-18H368v-15.71h14.97v-18H368v-28.89h25.504v-18H368V137h16v-18h-16V88.008h-23.488v-18h22.314c-1.662-8.766-5.116-16.88-9.945-23.975l8.927-26.16-17.036-5.812zM309.35 43.093l.875 31.986-17.994.492-.876-31.988 17.994-.49zm-46.627 61.306h32v18h-32v-18zm53.852 69.182h32v18h-32v-18zm-169.717 11.035h32v18h-32v-18zm88.553 30.184h32v18h-32v-18zm230.022 12.733l-9.116 20.48c-.105 0-.21-.013-.314-.013-6.622 0-13.238 2.44-17.844 7.313l-12.76-11.094-11.81 13.583L432 273.813v46.275c0 12.18-7.97 15.912-16.395 15.912H386v48h32.994l.12 19.742 18-.11-.12-19.786C465.712 382.176 480 366.232 480 336v-18.223h16.512v-18H480V272c0-7.636-2.736-13.446-6.898-17.438l8.773-19.71-16.445-7.32zm-19.61 83.985l18 .113-.2 32-18-.112.2-32zm-152.472 19.574l.875 31.986-17.994.492-.876-31.988 17.994-.49zm26.312 49.496h32v18h-32v-18zm-62.574 32.453h32v18h-32v-18z"/></g><g transform="translate(94 40) scale(0.06) translate(-256 -256)"><path fill="currentColor"  d="M246.488 29.5l-13.244 39.725 14.381 86.275h16.75l14.38-86.275L265.515 29.5h-19.026zM195 61.5l-40 30h63.709l-3.953-23.725 2.092-6.275H195zm100.152 0l2.092 6.275-3.953 23.725H357l-40-30h-21.848zM69.42 90.727L41.639 257.41 71 286.773V162.375l20.863-41.725L69.42 90.727zm373.16 0l-22.443 29.923L441 162.375v124.398l29.361-29.363-27.78-166.683zM117.563 109.5L89 166.625V400l110 82.5v-87.906l-80-32V211.576l35.393-72.076h72.316l-5-30H117.562zm172.728 0l-5 30h72.272L393 210.375v152.219l-80 32V482.5L423 400V166.625L394.437 109.5H290.291zm-124.684 48L137 215.758v3.742h238v-4.875L346.437 157.5h-64.146l-2.666 16h-47.25l-2.666-16h-64.102zM137 237.5v46h30v-46h-30zm96 0v46h46v-46h-46zm112 0v46h30v-46h-30zm-208 64v48.906l46.678 18.67 27.029-67.576H137zm93.092 0l-29.705 74.262L217 382.406v51.067l39 9.75 39-9.75v-51.067l16.613-6.644-29.705-74.262h-51.816zm71.201 0l27.03 67.576L375 350.406V301.5h-73.707z"/></g></g></g></svg>