<svg xmlns="http://www.w3.org/2000/svg" width="128" height="128" viewBox="0 0 128 128"><defs><filter id="s" x="-30%" y="-30%" width="160%" height="160%"><feDropShadow dx="0" dy="2" stdDeviation="2" flood-color="#000" flood-opacity="0.75"/></filter></defs><g filter="url(#s)"><circle cx="64" cy="64" r="54" fill="#151821" fill-opacity="0.92"/><circle cx="64" cy="64" r="54" fill="none" stroke="#7dd3fc" stroke-width="5"/><g color="#7dd3fc"><g transform="translate(58 72) scale(0.145) translate(-256 -256)"><path fill="currentColor"  d="M255.688 18S198.118 84.876 199 148.875c.11 7.924 1.104 15.806 2.78 23.53 23.498 25.825 43.035 57.618 58.19 95 13.85-31.163 30.07-60.016 50.03-84.967 3.764-12.817 6.056-26.13 5.875-39.313-.88-64-60.188-125.125-60.188-125.125zM24.094 111.47c.138 1.77.174 2.98.406 5.186.993 9.44 2.96 22.583 6.813 37.22 7.703 29.27 22.952 64.12 52.25 87.81 16.455 13.308 40.276 20.756 64.593 27.064s48.935 11.302 67.594 23.156c14.984 9.52 24.296 24.148 28.375 40.813 4.08 16.663 3.338 35.387-.72 55.06-7.072 34.304-24.28 71.737-46.874 105.908h126.44c-22.767-34.427-39.985-72.006-46.94-106.438-3.982-19.722-4.637-38.51-.436-55.188 4.2-16.677 13.665-31.284 28.75-40.78 18.79-11.83 43.49-16.743 67.812-22.938 24.322-6.196 48.034-13.46 64.313-26.625 47.514-38.425 57.337-105.795 59.405-130.19-61.585 1.928-106.926 21.097-142.406 52.19-37.42 32.788-64.065 79.142-85.345 132.436l-5.28 13.156-10.033-10.03-1.53-1.532-.688-2.063C210.397 177.51 133.342 115.054 24.094 111.47z"/></g><g transform="translate(92 40) scale(0.065) translate(-256 -256)"><path fill="currentColor"  d="M308.375 15.094L242.937 36.53l-14.156 67.376 38.814 34.78c-12.68-1.094-25.17-.08-37.063 2.783l12.157 37.093c-6.177 1.23-12.12 3.2-17.75 5.843l-12.156-37.094c-11.5 4.83-22.173 11.465-31.56 19.657L191.937 116l-51.25-45.938L75.25 91.47l-14.156 67.374 51.25 45.937 49.594-16.218c-6.804 9.87-12.145 20.955-15.688 32.97l38.25 8.062c-.99 2.92-1.85 5.905-2.5 9-.652 3.102-1.105 6.2-1.375 9.28l-38.25-8.06c-1.646 12.762-1.132 25.392 1.28 37.467L104.5 242.157l-65.438 21.438-14.156 67.344 51.25 45.968 65.438-21.406 10.844-51.656c5.296 11.288 12.385 21.69 20.968 30.75L199.47 305.5c4.08 4.677 8.726 8.89 13.874 12.5l-26.03 29.063c9.615 7.326 20.49 13.246 32.374 17.343l-49.657 16.25-14.155 67.375 51.25 45.97 65.438-21.438 14.156-67.343-38.845-34.845c12.66 1.094 25.125.073 37-2.78L272.75 330.56c6.182-1.218 12.147-3.18 17.78-5.812l12.126 37.03c11.548-4.842 22.237-11.517 31.656-19.75l-10.75 51.064 51.282 45.937 65.406-21.405 14.156-67.375-51.25-45.938-49.72 16.282c6.843-9.905 12.23-21.002 15.783-33.063l-38.126-8.03c.99-2.92 1.85-5.938 2.5-9.03.65-3.1 1.074-6.175 1.344-9.25l38.125 8.03c1.64-12.78 1.107-25.415-1.313-37.5l39.28 35.188L476.44 245.5l14.187-67.344-51.28-45.97-65.408 21.408-10.875 51.687c-5.302-11.317-12.418-21.733-21.03-30.81l-26 29.03c-4.098-4.682-8.77-8.892-13.938-12.5l26.03-29.03c-9.6-7.307-20.46-13.188-32.312-17.282l49.657-16.25 14.155-67.375-51.25-45.97zm-64 189.375l49.906 13.374 13.376 49.906-36.53 36.53-49.907-13.374L207.843 241l36.53-36.53z"/></g></g></g></svg>